<svg width="80" height="77" viewBox="0 0 80 77" fill="none" xmlns="http://www.w3.org/2000/svg">
<circle cx="1.66343" cy="74.5221" r="1.66343" transform="rotate(-90 1.66343 74.5221)" fill="#13C296"/>
<circle cx="1.66343" cy="30.9401" r="1.66343" transform="rotate(-90 1.66343 30.9401)" fill="#13C296"/>
<circle cx="16.3016" cy="74.5221" r="1.66343" transform="rotate(-90 16.3016 74.5221)" fill="#13C296"/>
<circle cx="16.3016" cy="30.9401" r="1.66343" transform="rotate(-90 16.3016 30.9401)" fill="#13C296"/>
<ellipse cx="32.4398" cy="74.5221" rx="1.66343" ry="3.16343" transform="rotate(-90 32.4398 74.5221)" fill="#13C296"/>
<ellipse cx="32.4398" cy="30.9401" rx="1.66343" ry="3.16343" transform="rotate(-90 32.4398 30.9401)" fill="#13C296"/>
<ellipse cx="47.078" cy="74.5221" rx="1.66343" ry="3.16343" transform="rotate(-90 47.078 74.5221)" fill="#13C296"/>
<ellipse cx="47.078" cy="30.9401" rx="1.66343" ry="3.16343" transform="rotate(-90 47.078 30.9401)" fill="#13C296"/>
<ellipse cx="61.7162" cy="74.5211" rx="1.66343" ry="3.16343" transform="rotate(-90 61.7162 74.5211)" fill="#13C296"/>
<ellipse cx="76.1634" cy="74.5221" rx="1.66343" ry="3.16343" transform="rotate(-90 76.1634 74.5221)" fill="#13C296"/>
<ellipse cx="61.7162" cy="30.9401" rx="1.66343" ry="3.16343" transform="rotate(-90 61.7162 30.9401)" fill="#13C296"/>
<ellipse cx="76.1634" cy="30.9401" rx="1.66343" ry="3.16343" transform="rotate(-90 76.1634 30.9401)" fill="#13C296"/>
<circle cx="1.66343" cy="59.8834" r="1.66343" transform="rotate(-90 1.66343 59.8834)" fill="#13C296"/>
<circle cx="1.66343" cy="16.3014" r="1.66343" transform="rotate(-90 1.66343 16.3014)" fill="#13C296"/>
<circle cx="16.3016" cy="59.8834" r="1.66343" transform="rotate(-90 16.3016 59.8834)" fill="#13C296"/>
<circle cx="16.3016" cy="16.3014" r="1.66343" transform="rotate(-90 16.3016 16.3014)" fill="#13C296"/>
<ellipse cx="32.4398" cy="59.8834" rx="1.66343" ry="3.16343" transform="rotate(-90 32.4398 59.8834)" fill="#13C296"/>
<ellipse cx="32.4398" cy="16.3014" rx="1.66343" ry="3.16343" transform="rotate(-90 32.4398 16.3014)" fill="#13C296"/>
<ellipse cx="47.078" cy="59.8834" rx="1.66343" ry="3.16343" transform="rotate(-90 47.078 59.8834)" fill="#13C296"/>
<ellipse cx="47.078" cy="16.3014" rx="1.66343" ry="3.16343" transform="rotate(-90 47.078 16.3014)" fill="#13C296"/>
<ellipse cx="61.7162" cy="59.8844" rx="1.66343" ry="3.16343" transform="rotate(-90 61.7162 59.8844)" fill="#13C296"/>
<ellipse cx="76.1634" cy="59.8834" rx="1.66343" ry="3.16343" transform="rotate(-90 76.1634 59.8834)" fill="#13C296"/>
<ellipse cx="61.7162" cy="16.3014" rx="1.66343" ry="3.16343" transform="rotate(-90 61.7162 16.3014)" fill="#13C296"/>
<ellipse cx="76.1634" cy="16.3014" rx="1.66343" ry="3.16343" transform="rotate(-90 76.1634 16.3014)" fill="#13C296"/>
<circle cx="1.66343" cy="45.2457" r="1.66343" transform="rotate(-90 1.66343 45.2457)" fill="#13C296"/>
<circle cx="1.66343" cy="1.66371" r="1.66343" transform="rotate(-90 1.66343 1.66371)" fill="#13C296"/>
<circle cx="16.3016" cy="45.2457" r="1.66343" transform="rotate(-90 16.3016 45.2457)" fill="#13C296"/>
<circle cx="16.3016" cy="1.66371" r="1.66343" transform="rotate(-90 16.3016 1.66371)" fill="#13C296"/>
<ellipse cx="32.4398" cy="45.2457" rx="1.66343" ry="3.16343" transform="rotate(-90 32.4398 45.2457)" fill="#13C296"/>
<ellipse cx="32.4398" cy="1.66371" rx="1.66343" ry="3.16343" transform="rotate(-90 32.4398 1.66371)" fill="#13C296"/>
<ellipse cx="47.078" cy="45.2457" rx="1.66343" ry="3.16343" transform="rotate(-90 47.078 45.2457)" fill="#13C296"/>
<ellipse cx="47.078" cy="1.66371" rx="1.66343" ry="3.16343" transform="rotate(-90 47.078 1.66371)" fill="#13C296"/>
<ellipse cx="61.7162" cy="45.2457" rx="1.66343" ry="3.16343" transform="rotate(-90 61.7162 45.2457)" fill="#13C296"/>
<ellipse cx="76.1634" cy="45.2457" rx="1.66343" ry="3.16343" transform="rotate(-90 76.1634 45.2457)" fill="#13C296"/>
<ellipse cx="61.7162" cy="1.66371" rx="1.66343" ry="3.16343" transform="rotate(-90 61.7162 1.66371)" fill="#13C296"/>
<ellipse cx="76.1634" cy="1.66371" rx="1.66343" ry="3.16343" transform="rotate(-90 76.1634 1.66371)" fill="#13C296"/>
</svg>
