<svg width="142" height="46" viewBox="0 0 142 46" fill="none" xmlns="http://www.w3.org/2000/svg">
<g filter="url(#filter0_d_121_56570)">
<rect x="5" y="4" width="36" height="36" rx="4" fill="white"/>
</g>
<path d="M25.3529 26.2007C24.3657 26.2007 23.5557 27.036 23.5557 28.0485C23.5557 29.061 24.3657 29.8963 25.3529 29.8963C26.34 29.8963 27.15 29.061 27.15 28.0485C27.1754 27.036 26.3654 26.2007 25.3529 26.2007ZM25.3529 29.0104C24.8466 29.0104 24.4416 28.5801 24.4416 28.0485C24.4416 27.5169 24.8466 27.0866 25.3529 27.0866C25.8591 27.0866 26.2641 27.5169 26.2641 28.0485C26.2894 28.5801 25.8591 29.0104 25.3529 29.0104Z" fill="black"/>
<path d="M19.6068 26.2007C18.6196 26.2007 17.8096 27.036 17.8096 28.0485C17.8096 29.061 18.6196 29.8963 19.6068 29.8963C20.5939 29.8963 21.4039 29.061 21.4039 28.0485C21.4293 27.036 20.6193 26.2007 19.6068 26.2007ZM19.6068 29.0104C19.1005 29.0104 18.6955 28.5801 18.6955 28.0485C18.6955 27.5169 19.1005 27.0866 19.6068 27.0866C20.113 27.0866 20.518 27.5169 20.518 28.0485C20.5433 28.5801 20.113 29.0104 19.6068 29.0104Z" fill="black"/>
<path d="M29.6307 14.3291H28.0107C27.631 14.3291 27.3019 14.6075 27.2513 14.9872L26.7957 18.3285H16.8479C16.62 18.3285 16.4175 18.4297 16.291 18.6069C16.1644 18.7841 16.1138 19.0119 16.1644 19.2144V19.2397L17.7085 24.0238C17.7844 24.3275 18.0629 24.5553 18.4172 24.5553H25.8844C26.4413 24.5553 26.8969 24.1503 26.9729 23.5935L28.1372 15.1897H29.656C29.9091 15.1897 30.1116 14.9872 30.1116 14.7341C30.1116 14.481 29.8838 14.3291 29.6307 14.3291ZM26.0616 23.4669C26.0363 23.5682 25.9604 23.6694 25.8338 23.6694H18.4932L17.0504 19.2144H26.6438L26.0616 23.4669Z" fill="black"/>
<g filter="url(#filter1_d_121_56570)">
<rect x="53" y="4" width="36" height="36" rx="4" fill="white"/>
</g>
<path d="M71 20.0312C69.9031 20.0312 69.0312 20.9313 69.0312 22C69.0312 23.0687 69.9312 23.9688 71 23.9688C72.0687 23.9688 72.9687 23.0687 72.9687 22C72.9687 20.9313 72.0969 20.0312 71 20.0312ZM71 22.9844C70.4656 22.9844 70.0156 22.5344 70.0156 22C70.0156 21.4656 70.4656 21.0156 71 21.0156C71.5344 21.0156 71.9844 21.4656 71.9844 22C71.9844 22.5344 71.5344 22.9844 71 22.9844Z" fill="black"/>
<path d="M79.5501 21.6624C77.6938 18.7374 74.4876 16.9937 71.0001 16.9937C67.5126 16.9937 64.3063 18.7374 62.4501 21.6624C62.3376 21.8593 62.3376 22.1124 62.4501 22.3093C64.3063 25.2343 67.5126 26.978 71.0001 26.978C74.4876 26.978 77.6938 25.2343 79.5501 22.3093C79.6907 22.1124 79.6907 21.8593 79.5501 21.6624ZM71.0001 25.9937C67.9345 25.9937 65.0938 24.503 63.4063 21.9718C65.0938 19.4687 67.9345 17.978 71.0001 17.978C74.0657 17.978 76.9063 19.4687 78.5938 21.9718C76.9063 24.503 74.0657 25.9937 71.0001 25.9937Z" fill="black"/>
<g filter="url(#filter2_d_121_56570)">
<rect x="101" y="4" width="36" height="36" rx="4" fill="white"/>
</g>
<path d="M119 29.7062C118.663 29.7062 118.297 29.5937 118.044 29.3405C117.397 28.778 116.75 28.2437 116.188 27.7655C114.529 26.3593 113.094 25.1499 112.082 23.9405C110.9 22.5343 110.338 21.1843 110.338 19.6937C110.338 18.2312 110.844 16.8812 111.772 15.8968C112.7 14.8843 113.994 14.3218 115.4 14.3218C116.441 14.3218 117.425 14.6593 118.269 15.3062C118.522 15.503 118.775 15.728 119 15.9812C119.225 15.728 119.479 15.503 119.732 15.3062C120.575 14.6593 121.532 14.3218 122.6 14.3218C124.007 14.3218 125.272 14.8843 126.229 15.8968C127.157 16.8812 127.663 18.2312 127.663 19.6937C127.663 21.1843 127.1 22.5343 125.919 23.9405C124.907 25.1499 123.472 26.3593 121.813 27.7655C121.25 28.2437 120.604 28.778 119.957 29.3405C119.704 29.5655 119.338 29.7062 119 29.7062ZM115.4 15.278C114.275 15.278 113.235 15.728 112.504 16.5437C111.744 17.3593 111.35 18.4562 111.35 19.6655C111.35 20.903 111.829 22.0562 112.841 23.2937C113.797 24.4468 115.204 25.628 116.835 27.0062C117.397 27.4843 118.044 28.0187 118.691 28.6093C118.86 28.7499 119.141 28.7499 119.31 28.6093C119.985 28.0468 120.604 27.4843 121.166 27.0062C122.797 25.628 124.204 24.4468 125.16 23.2937C126.172 22.0562 126.65 20.903 126.65 19.6655C126.65 18.4562 126.229 17.3593 125.497 16.5437C124.738 15.728 123.725 15.278 122.6 15.278C121.757 15.278 120.997 15.5312 120.35 16.0655C120.069 16.2624 119.844 16.5155 119.591 16.7968C119.45 16.9655 119.225 17.078 119 17.078C118.775 17.078 118.55 16.9655 118.41 16.7968C118.185 16.5155 117.932 16.2624 117.65 16.0655C117.004 15.5593 116.244 15.278 115.4 15.278Z" fill="#212B36"/>
<defs>
<filter id="filter0_d_121_56570" x="0" y="0" width="46" height="46" filterUnits="userSpaceOnUse" color-interpolation-filters="sRGB">
<feFlood flood-opacity="0" result="BackgroundImageFix"/>
<feColorMatrix in="SourceAlpha" type="matrix" values="0 0 0 0 0 0 0 0 0 0 0 0 0 0 0 0 0 0 127 0" result="hardAlpha"/>
<feOffset dy="1"/>
<feGaussianBlur stdDeviation="2.5"/>
<feComposite in2="hardAlpha" operator="out"/>
<feColorMatrix type="matrix" values="0 0 0 0 0 0 0 0 0 0 0 0 0 0 0 0 0 0 0.14 0"/>
<feBlend mode="normal" in2="BackgroundImageFix" result="effect1_dropShadow_121_56570"/>
<feBlend mode="normal" in="SourceGraphic" in2="effect1_dropShadow_121_56570" result="shape"/>
</filter>
<filter id="filter1_d_121_56570" x="48" y="0" width="46" height="46" filterUnits="userSpaceOnUse" color-interpolation-filters="sRGB">
<feFlood flood-opacity="0" result="BackgroundImageFix"/>
<feColorMatrix in="SourceAlpha" type="matrix" values="0 0 0 0 0 0 0 0 0 0 0 0 0 0 0 0 0 0 127 0" result="hardAlpha"/>
<feOffset dy="1"/>
<feGaussianBlur stdDeviation="2.5"/>
<feComposite in2="hardAlpha" operator="out"/>
<feColorMatrix type="matrix" values="0 0 0 0 0 0 0 0 0 0 0 0 0 0 0 0 0 0 0.14 0"/>
<feBlend mode="normal" in2="BackgroundImageFix" result="effect1_dropShadow_121_56570"/>
<feBlend mode="normal" in="SourceGraphic" in2="effect1_dropShadow_121_56570" result="shape"/>
</filter>
<filter id="filter2_d_121_56570" x="96" y="0" width="46" height="46" filterUnits="userSpaceOnUse" color-interpolation-filters="sRGB">
<feFlood flood-opacity="0" result="BackgroundImageFix"/>
<feColorMatrix in="SourceAlpha" type="matrix" values="0 0 0 0 0 0 0 0 0 0 0 0 0 0 0 0 0 0 127 0" result="hardAlpha"/>
<feOffset dy="1"/>
<feGaussianBlur stdDeviation="2.5"/>
<feComposite in2="hardAlpha" operator="out"/>
<feColorMatrix type="matrix" values="0 0 0 0 0 0 0 0 0 0 0 0 0 0 0 0 0 0 0.14 0"/>
<feBlend mode="normal" in2="BackgroundImageFix" result="effect1_dropShadow_121_56570"/>
<feBlend mode="normal" in="SourceGraphic" in2="effect1_dropShadow_121_56570" result="shape"/>
</filter>
</defs>
</svg>
