<svg width="46" height="44" viewBox="0 0 46 44" fill="none" xmlns="http://www.w3.org/2000/svg">
<path d="M26.5676 14.667H32.1669C35.2594 14.667 37.7662 17.1294 37.7662 20.167V40.3337H26.5676V14.667Z" fill="#3056D3"/>
<path d="M7.9032 13.4607C7.9032 10.937 9.65184 8.73705 12.1445 8.12493L23.3431 5.37493C26.877 4.50711 30.3004 7.13259 30.3004 10.7107V40.3331H7.9032V13.4607Z" fill="#98AAE9"/>
<path fill-rule="evenodd" clip-rule="evenodd" d="M15.369 31.1663C15.369 30.1538 16.2047 29.333 17.2355 29.333H20.9683C21.9992 29.333 22.8348 30.1538 22.8348 31.1663C22.8348 32.1789 21.9992 32.9997 20.9683 32.9997H17.2355C16.2047 32.9997 15.369 32.1789 15.369 31.1663Z" fill="#3056D3"/>
<path fill-rule="evenodd" clip-rule="evenodd" d="M15.369 23.8333C15.369 22.8208 16.2047 22 17.2355 22H20.9683C21.9992 22 22.8348 22.8208 22.8348 23.8333C22.8348 24.8459 21.9992 25.6667 20.9683 25.6667H17.2355C16.2047 25.6667 15.369 24.8459 15.369 23.8333Z" fill="#3056D3"/>
<path fill-rule="evenodd" clip-rule="evenodd" d="M15.369 16.5003C15.369 15.4878 16.2047 14.667 17.2355 14.667H20.9683C21.9992 14.667 22.8348 15.4878 22.8348 16.5003C22.8348 17.5128 21.9992 18.3337 20.9683 18.3337H17.2355C16.2047 18.3337 15.369 17.5128 15.369 16.5003Z" fill="#3056D3"/>
<path fill-rule="evenodd" clip-rule="evenodd" d="M4.17041 38.5003C4.17041 37.4878 5.00605 36.667 6.03685 36.667H39.6327C40.6635 36.667 41.4991 37.4878 41.4991 38.5003C41.4991 39.5129 40.6635 40.3337 39.6327 40.3337H6.03685C5.00605 40.3337 4.17041 39.5129 4.17041 38.5003Z" fill="#98AAE9"/>
</svg>
